<svg width="512" height="512" viewBox="0 0 512 512" fill="none" xmlns="http://www.w3.org/2000/svg">
<path d="M159 62.0001C160.97 61.9992 162.921 62.3865 164.742 63.1397C166.562 63.893 168.216 64.9975 169.61 66.3901L354.5 251.29C357.312 254.103 358.892 257.918 358.892 261.895C358.892 265.873 357.312 269.687 354.5 272.5L169.61 457.4C168.217 458.793 166.564 459.899 164.744 460.653C162.924 461.407 160.974 461.796 159.004 461.796C157.034 461.797 155.083 461.409 153.263 460.656C151.442 459.902 149.788 458.798 148.395 457.405C147.002 456.012 145.896 454.359 145.142 452.539C144.388 450.719 143.999 448.769 143.999 446.799C143.998 444.829 144.386 442.878 145.139 441.058C145.893 439.237 146.997 437.583 148.39 436.19L322.68 261.9L148.39 87.6101C146.291 85.5123 144.861 82.839 144.282 79.9283C143.702 77.0177 144 74.0007 145.135 71.2589C146.271 68.5172 148.195 66.174 150.663 64.5259C153.131 62.8778 156.032 61.9988 159 62.0001Z" fill="black"/>
</svg>
